<svg width="95" height="25" viewBox="0 0 91 25" fill="none" xmlns="http://www.w3.org/2000/svg">
<rect width="84" height="25" rx="12.5" fill="#E34D41"/>
<path d="M38.6953 16V8H44.0859V9.39453H40.3867V11.3008H43.8086V12.6953H40.3867V14.6055H44.1016V16H38.6953ZM45.3994 16V10H46.9854V11.0586H47.0557C47.1807 10.707 47.389 10.4297 47.6807 10.2266C47.9723 10.0234 48.3213 9.92188 48.7275 9.92188C49.139 9.92188 49.4893 10.0247 49.7783 10.2305C50.0674 10.4336 50.2601 10.7096 50.3564 11.0586H50.4189C50.5413 10.7148 50.7627 10.4401 51.083 10.2344C51.4059 10.026 51.7874 9.92188 52.2275 9.92188C52.7874 9.92188 53.2419 10.1003 53.5908 10.457C53.9424 10.8112 54.1182 11.3138 54.1182 11.9648V16H52.458V12.293C52.458 11.9596 52.3695 11.7096 52.1924 11.543C52.0153 11.3763 51.7939 11.293 51.5283 11.293C51.2262 11.293 50.9906 11.3893 50.8213 11.582C50.652 11.7721 50.5674 12.0234 50.5674 12.3359V16H48.9541V12.2578C48.9541 11.9635 48.8695 11.7292 48.7002 11.5547C48.5335 11.3802 48.3135 11.293 48.04 11.293C47.8551 11.293 47.6885 11.3398 47.54 11.4336C47.3942 11.5247 47.2783 11.6536 47.1924 11.8203C47.1064 11.9844 47.0635 12.1771 47.0635 12.3984V16H45.3994ZM57.1436 16.1133C56.7607 16.1133 56.4196 16.0469 56.1201 15.9141C55.8206 15.7786 55.5837 15.5794 55.4092 15.3164C55.2373 15.0508 55.1514 14.7201 55.1514 14.3242C55.1514 13.9909 55.2126 13.7109 55.335 13.4844C55.4574 13.2578 55.624 13.0755 55.835 12.9375C56.0459 12.7995 56.2855 12.6953 56.5537 12.625C56.8245 12.5547 57.1084 12.5052 57.4053 12.4766C57.7542 12.4401 58.0355 12.4062 58.249 12.375C58.4626 12.3411 58.6175 12.2917 58.7139 12.2266C58.8102 12.1615 58.8584 12.0651 58.8584 11.9375V11.9141C58.8584 11.6667 58.7803 11.4753 58.624 11.3398C58.4704 11.2044 58.2516 11.1367 57.9678 11.1367C57.6683 11.1367 57.43 11.2031 57.2529 11.3359C57.0758 11.4661 56.9587 11.6302 56.9014 11.8281L55.3623 11.7031C55.4404 11.3385 55.5941 11.0234 55.8232 10.7578C56.0524 10.4896 56.348 10.2839 56.71 10.1406C57.0745 9.99479 57.4964 9.92188 57.9756 9.92188C58.3089 9.92188 58.6279 9.96094 58.9326 10.0391C59.2399 10.1172 59.512 10.2383 59.749 10.4023C59.9886 10.5664 60.1774 10.7773 60.3154 11.0352C60.4535 11.2904 60.5225 11.5964 60.5225 11.9531V16H58.9443V15.168H58.8975C58.8011 15.3555 58.6722 15.5208 58.5107 15.6641C58.3493 15.8047 58.1553 15.9154 57.9287 15.9961C57.7021 16.0742 57.4404 16.1133 57.1436 16.1133ZM57.6201 14.9648C57.8649 14.9648 58.0811 14.9167 58.2686 14.8203C58.4561 14.7214 58.6032 14.5885 58.71 14.4219C58.8167 14.2552 58.8701 14.0664 58.8701 13.8555V13.2188C58.818 13.2526 58.7464 13.2839 58.6553 13.3125C58.5667 13.3385 58.4665 13.3633 58.3545 13.3867C58.2425 13.4076 58.1305 13.4271 58.0186 13.4453C57.9066 13.4609 57.805 13.4753 57.7139 13.4883C57.5186 13.5169 57.348 13.5625 57.2021 13.625C57.0563 13.6875 56.943 13.7721 56.8623 13.8789C56.7816 13.9831 56.7412 14.1133 56.7412 14.2695C56.7412 14.4961 56.8232 14.6693 56.9873 14.7891C57.154 14.9062 57.3649 14.9648 57.6201 14.9648ZM61.8135 16V10H63.4775V16H61.8135ZM62.6494 9.22656C62.402 9.22656 62.1898 9.14453 62.0127 8.98047C61.8382 8.8138 61.751 8.61458 61.751 8.38281C61.751 8.15365 61.8382 7.95703 62.0127 7.79297C62.1898 7.6263 62.402 7.54297 62.6494 7.54297C62.8968 7.54297 63.1077 7.6263 63.2822 7.79297C63.4593 7.95703 63.5479 8.15365 63.5479 8.38281C63.5479 8.61458 63.4593 8.8138 63.2822 8.98047C63.1077 9.14453 62.8968 9.22656 62.6494 9.22656ZM66.4746 8V16H64.8105V8H66.4746Z" fill="white"/>
<path d="M28.5 7.5H18.5C17.8125 7.5 17.2562 8.0625 17.2562 8.75L17.25 16.25C17.25 16.9375 17.8125 17.5 18.5 17.5H28.5C29.1875 17.5 29.75 16.9375 29.75 16.25V8.75C29.75 8.0625 29.1875 7.5 28.5 7.5ZM28.5 10L23.5 13.125L18.5 10V8.75L23.5 11.875L28.5 8.75V10Z" fill="white"/>
</svg>
