<svg width="105" height="25" viewBox="0 0 101 25" fill="none" xmlns="http://www.w3.org/2000/svg">
<rect width="101" height="25" rx="12.5" fill="#0077B5"/>
<path d="M38.7349 16.3571V8.35715H40.4263V14.9626H43.856V16.3571H38.7349ZM44.9449 16.3571V10.3571H46.6089V16.3571H44.9449ZM45.7808 9.58371C45.5334 9.58371 45.3212 9.50168 45.1441 9.33762C44.9696 9.17095 44.8824 8.97173 44.8824 8.73996C44.8824 8.51079 44.9696 8.31418 45.1441 8.15012C45.3212 7.98345 45.5334 7.90012 45.7808 7.90012C46.0282 7.90012 46.2392 7.98345 46.4136 8.15012C46.5907 8.31418 46.6793 8.51079 46.6793 8.73996C46.6793 8.97173 46.5907 9.17095 46.4136 9.33762C46.2392 9.50168 46.0282 9.58371 45.7808 9.58371ZM49.606 12.8884V16.3571H47.942V10.3571H49.5279V11.4157H49.5982C49.731 11.0668 49.9537 10.7907 50.2662 10.5876C50.5787 10.3819 50.9576 10.279 51.4029 10.279C51.8196 10.279 52.1828 10.3702 52.4927 10.5525C52.8026 10.7348 53.0435 10.9952 53.2154 11.3337C53.3873 11.6696 53.4732 12.0707 53.4732 12.5368V16.3571H51.8091V12.8337C51.8117 12.4665 51.718 12.1801 51.5279 11.9743C51.3378 11.766 51.0761 11.6618 50.7427 11.6618C50.5188 11.6618 50.3209 11.71 50.149 11.8064C49.9797 11.9027 49.8469 12.0433 49.7505 12.2282C49.6568 12.4105 49.6086 12.6306 49.606 12.8884ZM56.2925 14.6306L56.2964 12.6345H56.5386L58.4605 10.3571H60.3707L57.7886 13.3728H57.3941L56.2925 14.6306ZM54.7847 16.3571V8.35715H56.4488V16.3571H54.7847ZM58.5347 16.3571L56.7691 13.7439L57.8785 12.5681L60.4839 16.3571H58.5347ZM63.6744 16.4743C63.0572 16.4743 62.5259 16.3493 62.0806 16.0993C61.6379 15.8467 61.2968 15.49 61.0572 15.029C60.8176 14.5655 60.6978 14.0173 60.6978 13.3845C60.6978 12.7673 60.8176 12.2256 61.0572 11.7595C61.2968 11.2933 61.634 10.9301 62.0689 10.6696C62.5064 10.4092 63.0194 10.279 63.608 10.279C64.0038 10.279 64.3723 10.3428 64.7134 10.4704C65.0572 10.5954 65.3567 10.7842 65.6119 11.0368C65.8697 11.2894 66.0702 11.6071 66.2134 11.99C66.3567 12.3702 66.4283 12.8155 66.4283 13.3259V13.7829H61.3619V12.7517H64.8619C64.8619 12.5121 64.8098 12.2999 64.7056 12.115C64.6015 11.9301 64.4569 11.7855 64.272 11.6814C64.0897 11.5746 63.8775 11.5212 63.6353 11.5212C63.3827 11.5212 63.1588 11.5798 62.9634 11.697C62.7707 11.8116 62.6197 11.9665 62.5103 12.1618C62.4009 12.3545 62.345 12.5694 62.3423 12.8064V13.7868C62.3423 14.0837 62.397 14.3402 62.5064 14.5564C62.6184 14.7725 62.7759 14.9392 62.9791 15.0564C63.1822 15.1736 63.4231 15.2321 63.7017 15.2321C63.8866 15.2321 64.0559 15.2061 64.2095 15.154C64.3632 15.1019 64.4947 15.0238 64.6041 14.9196C64.7134 14.8155 64.7968 14.6879 64.8541 14.5368L66.3931 14.6384C66.315 15.0082 66.1548 15.3311 65.9127 15.6071C65.6731 15.8806 65.3632 16.0941 64.983 16.2478C64.6054 16.3988 64.1692 16.4743 63.6744 16.4743ZM69.7252 16.4548C69.2694 16.4548 68.8567 16.3376 68.4869 16.1032C68.1197 15.8663 67.828 15.5186 67.6119 15.0603C67.3983 14.5993 67.2916 14.0342 67.2916 13.365C67.2916 12.6775 67.4022 12.1058 67.6236 11.6501C67.845 11.1918 68.1392 10.8493 68.5064 10.6228C68.8762 10.3936 69.2811 10.279 69.7213 10.279C70.0572 10.279 70.3371 10.3363 70.5611 10.4509C70.7877 10.5629 70.97 10.7035 71.108 10.8728C71.2486 11.0394 71.3554 11.2035 71.4283 11.365H71.4791V8.35715H73.1392V16.3571H71.4986V15.3962H71.4283C71.3502 15.5629 71.2395 15.7282 71.0963 15.8923C70.9556 16.0538 70.772 16.1879 70.5455 16.2946C70.3215 16.4014 70.0481 16.4548 69.7252 16.4548ZM70.2525 15.1306C70.5207 15.1306 70.7473 15.0577 70.9322 14.9118C71.1197 14.7634 71.2629 14.5564 71.3619 14.2907C71.4634 14.0251 71.5142 13.7139 71.5142 13.3571C71.5142 13.0004 71.4647 12.6905 71.3658 12.4275C71.2668 12.1644 71.1236 11.9613 70.9361 11.8181C70.7486 11.6749 70.5207 11.6032 70.2525 11.6032C69.9791 11.6032 69.7486 11.6775 69.5611 11.8259C69.3736 11.9743 69.2317 12.1801 69.1353 12.4431C69.039 12.7061 68.9908 13.0108 68.9908 13.3571C68.9908 13.7061 69.039 14.0147 69.1353 14.2829C69.2343 14.5486 69.3762 14.7569 69.5611 14.9079C69.7486 15.0564 69.9791 15.1306 70.2525 15.1306ZM76.23 8.35715V16.3571H74.5386V8.35715H76.23ZM79.2545 12.8884V16.3571H77.5904V10.3571H79.1763V11.4157H79.2466C79.3795 11.0668 79.6021 10.7907 79.9146 10.5876C80.2271 10.3819 80.606 10.279 81.0513 10.279C81.468 10.279 81.8313 10.3702 82.1412 10.5525C82.4511 10.7348 82.692 10.9952 82.8638 11.3337C83.0357 11.6696 83.1216 12.0707 83.1216 12.5368V16.3571H81.4576V12.8337C81.4602 12.4665 81.3664 12.1801 81.1763 11.9743C80.9862 11.766 80.7245 11.6618 80.3912 11.6618C80.1672 11.6618 79.9693 11.71 79.7974 11.8064C79.6282 11.9027 79.4953 12.0433 79.399 12.2282C79.3052 12.4105 79.2571 12.6306 79.2545 12.8884Z" fill="white"/>
<path d="M23.5555 16H21.3333V9.33333H23.5555V10.4444C24.0292 9.84181 24.7475 9.48254 25.5139 9.465C26.892 9.47265 28.004 10.5941 28 11.9722V16H25.7778V12.25C25.6889 11.6292 25.1565 11.1687 24.5294 11.17C24.2552 11.1787 23.9962 11.2988 23.8124 11.5026C23.6287 11.7064 23.5359 11.9763 23.5555 12.25V16ZM20.2222 16H18V9.33333H20.2222V16ZM19.1111 8.22222C18.4975 8.22222 18 7.72476 18 7.11111C18 6.49746 18.4975 6 19.1111 6C19.7248 6 20.2222 6.49746 20.2222 7.11111C20.2222 7.40579 20.1052 7.68841 19.8968 7.89678C19.6884 8.10516 19.4058 8.22222 19.1111 8.22222Z" fill="white"/>
</svg>
